<?xml version='1.0' encoding='UTF-8'?>
<svg width="74mm" height="74mm" version="1.1" viewBox="0 0 74 74" xmlns="http://www.w3.org/2000/svg"><path d="M4,4H6V6H4zM6,4H8V6H6zM8,4H10V6H8zM10,4H12V6H10zM12,4H14V6H12zM14,4H16V6H14zM16,4H18V6H16zM20,4H22V6H20zM28,4H30V6H28zM40,4H42V6H40zM44,4H46V6H44zM48,4H50V6H48zM50,4H52V6H50zM52,4H54V6H52zM56,4H58V6H56zM58,4H60V6H58zM60,4H62V6H60zM62,4H64V6H62zM64,4H66V6H64zM66,4H68V6H66zM68,4H70V6H68zM4,6H6V8H4zM16,6H18V8H16zM22,6H24V8H22zM24,6H26V8H24zM26,6H28V8H26zM28,6H30V8H28zM34,6H36V8H34zM38,6H40V8H38zM40,6H42V8H40zM42,6H44V8H42zM46,6H48V8H46zM48,6H50V8H48zM50,6H52V8H50zM56,6H58V8H56zM68,6H70V8H68zM4,8H6V10H4zM8,8H10V10H8zM10,8H12V10H10zM12,8H14V10H12zM16,8H18V10H16zM22,8H24V10H22zM32,8H34V10H32zM36,8H38V10H36zM48,8H50V10H48zM50,8H52V10H50zM52,8H54V10H52zM56,8H58V10H56zM60,8H62V10H60zM62,8H64V10H62zM64,8H66V10H64zM68,8H70V10H68zM4,10H6V12H4zM8,10H10V12H8zM10,10H12V12H10zM12,10H14V12H12zM16,10H18V12H16zM20,10H22V12H20zM24,10H26V12H24zM26,10H28V12H26zM30,10H32V12H30zM32,10H34V12H32zM34,10H36V12H34zM36,10H38V12H36zM42,10H44V12H42zM44,10H46V12H44zM48,10H50V12H48zM52,10H54V12H52zM56,10H58V12H56zM60,10H62V12H60zM62,10H64V12H62zM64,10H66V12H64zM68,10H70V12H68zM4,12H6V14H4zM8,12H10V14H8zM10,12H12V14H10zM12,12H14V14H12zM16,12H18V14H16zM22,12H24V14H22zM24,12H26V14H24zM28,12H30V14H28zM32,12H34V14H32zM34,12H36V14H34zM36,12H38V14H36zM38,12H40V14H38zM44,12H46V14H44zM48,12H50V14H48zM52,12H54V14H52zM56,12H58V14H56zM60,12H62V14H60zM62,12H64V14H62zM64,12H66V14H64zM68,12H70V14H68zM4,14H6V16H4zM16,14H18V16H16zM22,14H24V16H22zM26,14H28V16H26zM28,14H30V16H28zM40,14H42V16H40zM44,14H46V16H44zM50,14H52V16H50zM52,14H54V16H52zM56,14H58V16H56zM68,14H70V16H68zM4,16H6V18H4zM6,16H8V18H6zM8,16H10V18H8zM10,16H12V18H10zM12,16H14V18H12zM14,16H16V18H14zM16,16H18V18H16zM20,16H22V18H20zM24,16H26V18H24zM28,16H30V18H28zM32,16H34V18H32zM36,16H38V18H36zM40,16H42V18H40zM44,16H46V18H44zM48,16H50V18H48zM52,16H54V18H52zM56,16H58V18H56zM58,16H60V18H58zM60,16H62V18H60zM62,16H64V18H62zM64,16H66V18H64zM66,16H68V18H66zM68,16H70V18H68zM22,18H24V20H22zM32,18H34V20H32zM34,18H36V20H34zM42,18H44V20H42zM46,18H48V20H46zM48,18H50V20H48zM50,18H52V20H50zM8,20H10V22H8zM12,20H14V22H12zM14,20H16V22H14zM16,20H18V22H16zM20,20H22V22H20zM26,20H28V22H26zM28,20H30V22H28zM32,20H34V22H32zM36,20H38V22H36zM40,20H42V22H40zM42,20H44V22H42zM46,20H48V22H46zM48,20H50V22H48zM52,20H54V22H52zM54,20H56V22H54zM62,20H64V22H62zM68,20H70V22H68zM4,22H6V24H4zM10,22H12V24H10zM12,22H14V24H12zM18,22H20V24H18zM22,22H24V24H22zM28,22H30V24H28zM30,22H32V24H30zM32,22H34V24H32zM34,22H36V24H34zM36,22H38V24H36zM38,22H40V24H38zM44,22H46V24H44zM56,22H58V24H56zM62,22H64V24H62zM68,22H70V24H68zM4,24H6V26H4zM6,24H8V26H6zM8,24H10V26H8zM10,24H12V26H10zM14,24H16V26H14zM16,24H18V26H16zM18,24H20V26H18zM22,24H24V26H22zM26,24H28V26H26zM28,24H30V26H28zM32,24H34V26H32zM38,24H40V26H38zM40,24H42V26H40zM42,24H44V26H42zM46,24H48V26H46zM54,24H56V26H54zM60,24H62V26H60zM62,24H64V26H62zM66,24H68V26H66zM68,24H70V26H68zM4,26H6V28H4zM6,26H8V28H6zM10,26H12V28H10zM18,26H20V28H18zM20,26H22V28H20zM22,26H24V28H22zM24,26H26V28H24zM30,26H32V28H30zM32,26H34V28H32zM34,26H36V28H34zM52,26H54V28H52zM54,26H56V28H54zM62,26H64V28H62zM68,26H70V28H68zM10,28H12V30H10zM12,28H14V30H12zM16,28H18V30H16zM20,28H22V30H20zM28,28H30V30H28zM30,28H32V30H30zM34,28H36V30H34zM40,28H42V30H40zM42,28H44V30H42zM44,28H46V30H44zM50,28H52V30H50zM54,28H56V30H54zM56,28H58V30H56zM68,28H70V30H68zM4,30H6V32H4zM12,30H14V32H12zM18,30H20V32H18zM20,30H22V32H20zM24,30H26V32H24zM26,30H28V32H26zM32,30H34V32H32zM34,30H36V32H34zM40,30H42V32H40zM52,30H54V32H52zM54,30H56V32H54zM56,30H58V32H56zM62,30H64V32H62zM66,30H68V32H66zM68,30H70V32H68zM8,32H10V34H8zM10,32H12V34H10zM16,32H18V34H16zM18,32H20V34H18zM24,32H26V34H24zM34,32H36V34H34zM42,32H44V34H42zM44,32H46V34H44zM46,32H48V34H46zM56,32H58V34H56zM58,32H60V34H58zM62,32H64V34H62zM66,32H68V34H66zM68,32H70V34H68zM4,34H6V36H4zM10,34H12V36H10zM12,34H14V36H12zM14,34H16V36H14zM18,34H20V36H18zM24,34H26V36H24zM26,34H28V36H26zM30,34H32V36H30zM32,34H34V36H32zM34,34H36V36H34zM38,34H40V36H38zM40,34H42V36H40zM44,34H46V36H44zM46,34H48V36H46zM48,34H50V36H48zM50,34H52V36H50zM54,34H56V36H54zM58,34H60V36H58zM66,34H68V36H66zM68,34H70V36H68zM10,36H12V38H10zM12,36H14V38H12zM16,36H18V38H16zM18,36H20V38H18zM22,36H24V38H22zM26,36H28V38H26zM28,36H30V38H28zM30,36H32V38H30zM32,36H34V38H32zM40,36H42V38H40zM42,36H44V38H42zM46,36H48V38H46zM48,36H50V38H48zM54,36H56V38H54zM56,36H58V38H56zM58,36H60V38H58zM66,36H68V38H66zM12,38H14V40H12zM18,38H20V40H18zM20,38H22V40H20zM24,38H26V40H24zM34,38H36V40H34zM42,38H44V40H42zM44,38H46V40H44zM56,38H58V40H56zM62,38H64V40H62zM64,38H66V40H64zM66,38H68V40H66zM68,38H70V40H68zM6,40H8V42H6zM8,40H10V42H8zM16,40H18V42H16zM18,40H20V42H18zM20,40H22V42H20zM22,40H24V42H22zM24,40H26V42H24zM26,40H28V42H26zM28,40H30V42H28zM30,40H32V42H30zM32,40H34V42H32zM34,40H36V42H34zM36,40H38V42H36zM38,40H40V42H38zM40,40H42V42H40zM44,40H46V42H44zM56,40H58V42H56zM58,40H60V42H58zM60,40H62V42H60zM64,40H66V42H64zM66,40H68V42H66zM68,40H70V42H68zM6,42H8V44H6zM8,42H10V44H8zM22,42H24V44H22zM30,42H32V44H30zM32,42H34V44H32zM34,42H36V44H34zM46,42H48V44H46zM58,42H60V44H58zM66,42H68V44H66zM68,42H70V44H68zM8,44H10V46H8zM12,44H14V46H12zM14,44H16V46H14zM16,44H18V46H16zM18,44H20V46H18zM22,44H24V46H22zM24,44H26V46H24zM26,44H28V46H26zM28,44H30V46H28zM30,44H32V46H30zM32,44H34V46H32zM34,44H36V46H34zM36,44H38V46H36zM38,44H40V46H38zM46,44H48V46H46zM52,44H54V46H52zM56,44H58V46H56zM62,44H64V46H62zM66,44H68V46H66zM6,46H8V48H6zM10,46H12V48H10zM12,46H14V48H12zM14,46H16V48H14zM18,46H20V48H18zM20,46H22V48H20zM34,46H36V48H34zM44,46H46V48H44zM50,46H52V48H50zM52,46H54V48H52zM54,46H56V48H54zM68,46H70V48H68zM4,48H6V50H4zM14,48H16V50H14zM16,48H18V50H16zM18,48H20V50H18zM20,48H22V50H20zM24,48H26V50H24zM26,48H28V50H26zM28,48H30V50H28zM32,48H34V50H32zM34,48H36V50H34zM40,48H42V50H40zM44,48H46V50H44zM46,48H48V50H46zM50,48H52V50H50zM52,48H54V50H52zM56,48H58V50H56zM58,48H60V50H58zM60,48H62V50H60zM64,48H66V50H64zM66,48H68V50H66zM68,48H70V50H68zM6,50H8V52H6zM8,50H10V52H8zM10,50H12V52H10zM14,50H16V52H14zM20,50H22V52H20zM24,50H26V52H24zM28,50H30V52H28zM30,50H32V52H30zM36,50H38V52H36zM38,50H40V52H38zM40,50H42V52H40zM42,50H44V52H42zM44,50H46V52H44zM46,50H48V52H46zM48,50H50V52H48zM52,50H54V52H52zM54,50H56V52H54zM4,52H6V54H4zM10,52H12V54H10zM12,52H14V54H12zM14,52H16V54H14zM16,52H18V54H16zM26,52H28V54H26zM28,52H30V54H28zM34,52H36V54H34zM40,52H42V54H40zM42,52H44V54H42zM44,52H46V54H44zM46,52H48V54H46zM50,52H52V54H50zM52,52H54V54H52zM54,52H56V54H54zM56,52H58V54H56zM58,52H60V54H58zM60,52H62V54H60zM62,52H64V54H62zM68,52H70V54H68zM20,54H22V56H20zM26,54H28V56H26zM28,54H30V56H28zM36,54H38V56H36zM44,54H46V56H44zM46,54H48V56H46zM50,54H52V56H50zM52,54H54V56H52zM60,54H62V56H60zM64,54H66V56H64zM68,54H70V56H68zM4,56H6V58H4zM6,56H8V58H6zM8,56H10V58H8zM10,56H12V58H10zM12,56H14V58H12zM14,56H16V58H14zM16,56H18V58H16zM22,56H24V58H22zM24,56H26V58H24zM38,56H40V58H38zM40,56H42V58H40zM44,56H46V58H44zM48,56H50V58H48zM50,56H52V58H50zM52,56H54V58H52zM56,56H58V58H56zM60,56H62V58H60zM66,56H68V58H66zM68,56H70V58H68zM4,58H6V60H4zM16,58H18V60H16zM20,58H22V60H20zM26,58H28V60H26zM28,58H30V60H28zM32,58H34V60H32zM34,58H36V60H34zM38,58H40V60H38zM40,58H42V60H40zM46,58H48V60H46zM48,58H50V60H48zM50,58H52V60H50zM52,58H54V60H52zM60,58H62V60H60zM68,58H70V60H68zM4,60H6V62H4zM8,60H10V62H8zM10,60H12V62H10zM12,60H14V62H12zM16,60H18V62H16zM20,60H22V62H20zM24,60H26V62H24zM26,60H28V62H26zM34,60H36V62H34zM36,60H38V62H36zM38,60H40V62H38zM42,60H44V62H42zM44,60H46V62H44zM48,60H50V62H48zM52,60H54V62H52zM54,60H56V62H54zM56,60H58V62H56zM58,60H60V62H58zM60,60H62V62H60zM66,60H68V62H66zM4,62H6V64H4zM8,62H10V64H8zM10,62H12V64H10zM12,62H14V64H12zM16,62H18V64H16zM22,62H24V64H22zM24,62H26V64H24zM34,62H36V64H34zM36,62H38V64H36zM48,62H50V64H48zM50,62H52V64H50zM60,62H62V64H60zM4,64H6V66H4zM8,64H10V66H8zM10,64H12V66H10zM12,64H14V66H12zM16,64H18V66H16zM20,64H22V66H20zM22,64H24V66H22zM30,64H32V66H30zM34,64H36V66H34zM36,64H38V66H36zM38,64H40V66H38zM48,64H50V66H48zM52,64H54V66H52zM54,64H56V66H54zM58,64H60V66H58zM60,64H62V66H60zM62,64H64V66H62zM64,64H66V66H64zM68,64H70V66H68zM4,66H6V68H4zM16,66H18V68H16zM24,66H26V68H24zM28,66H30V68H28zM30,66H32V68H30zM40,66H42V68H40zM42,66H44V68H42zM46,66H48V68H46zM50,66H52V68H50zM52,66H54V68H52zM56,66H58V68H56zM58,66H60V68H58zM66,66H68V68H66zM4,68H6V70H4zM6,68H8V70H6zM8,68H10V70H8zM10,68H12V70H10zM12,68H14V70H12zM14,68H16V70H14zM16,68H18V70H16zM22,68H24V70H22zM24,68H26V70H24zM28,68H30V70H28zM30,68H32V70H30zM32,68H34V70H32zM38,68H40V70H38zM44,68H46V70H44zM48,68H50V70H48zM50,68H52V70H50zM52,68H54V70H52zM56,68H58V70H56zM58,68H60V70H58zM60,68H62V70H60zM66,68H68V70H66zM68,68H70V70H68z" id="qr-path" fill="#000000" fill-opacity="1" fill-rule="nonzero" stroke="none"/></svg>