<svg version="1.1" xmlns="http://www.w3.org/2000/svg" style="display: block;" viewBox="0 0 1886 2048" width="630" height="684" preserveAspectRatio="none">
<path transform="translate(0,0)" fill="rgb(61,54,50)" d="M 931.135 253.45 C 1094.01 248.435 1202.34 329.024 1333.75 412.269 C 1443.89 482.04 1547.59 536.937 1612.33 656.692 C 1635.8 700.237 1651.19 747.675 1657.75 796.707 C 1664.38 844.686 1661.65 869.296 1660.88 916.42 C 1660.44 960.049 1659.69 1003.67 1658.66 1047.29 L 1656.91 1146.57 C 1656.54 1176.86 1656.04 1218.26 1653.17 1248.15 C 1650.73 1271.6 1646.21 1294.79 1639.66 1317.44 C 1610.73 1414.03 1541.86 1499.73 1458.13 1554.78 C 1425.49 1576.25 1391.12 1593.96 1357.4 1613.59 C 1293.89 1650.81 1229.71 1686.9 1164.91 1721.83 C 1080.29 1767.26 997.121 1795.06 899.218 1789.08 C 885.13 1788.23 856.967 1787.13 844.316 1783.19 C 790.456 1766.46 828.935 1688.4 837.976 1652.83 C 865.404 1570.62 889.5 1489.47 905.402 1404.18 C 911.26 1371.78 916.297 1339.24 920.508 1306.59 C 922.222 1293.6 925.906 1257.81 929.607 1246.97 C 934.234 1233.61 944.083 1222.69 956.902 1216.72 C 1006.42 1193.36 1083.94 1251.21 1125.94 1274.29 C 1160.79 1293.44 1200.45 1310.97 1240.85 1312.34 C 1298.07 1314.28 1361.75 1293.8 1412.85 1268.88 C 1479.79 1236.64 1541.25 1196.58 1590.52 1140.71 C 1659.28 1062.74 1512.87 1060.44 1466.59 1058.41 C 1319.96 1052.01 1185.37 1105.89 1053.58 1163.14 L 982.803 1194.04 C 964.781 1202.03 948.712 1208.77 931.664 1218.66 C 933.397 1186.81 936.342 1154.84 938.039 1122.89 C 938.917 1106.57 939.594 1090.24 940.069 1073.91 C 940.596 1054.64 937.97 1028.67 944.745 1010.69 C 968.809 946.832 1109.51 978.249 1160.26 984.389 C 1194.34 988.51 1229.97 992.025 1264.31 990.904 C 1349.22 988.132 1422.27 972.316 1499.53 936.98 C 1517.73 928.658 1579.07 898.609 1584.75 881.34 C 1585.61 878.701 1585.51 876.583 1584.16 874.135 C 1576.5 860.244 1501.95 804.196 1484.17 791.593 C 1469.24 781.018 1453.82 770.686 1437.93 761.63 C 1423.41 753.359 1406.9 746.052 1390.97 741.073 C 1363.36 732.232 1333.63 732.506 1306.18 741.854 C 1272.8 752.943 1231.3 782.931 1202.46 803.083 C 1148.78 840.592 1096.5 880.697 1043.74 919.442 C 1012.09 942.688 975.981 970.676 941.591 988.645 C 939.136 957.225 939.601 924.273 936.831 892.265 C 934.962 863.122 930.913 833.699 928.922 804.656 C 925.897 760.544 953.061 745.556 992.159 740.453 C 1018.73 736.985 1046.57 735.29 1072.55 730.579 C 1101.4 725.628 1129.33 716.278 1155.34 702.856 C 1225.69 666.372 1280.97 591.221 1318.38 523.328 C 1345.02 473.534 1364.95 466.807 1296.38 466.052 C 1194.78 464.934 1118.43 472.443 1041.98 546.983 C 1011.52 580.125 994.7 612.578 976.691 653.839 C 958.947 694.491 954.185 737.998 920.254 768.573 C 906.463 753.263 905.489 736.347 903.273 716.76 C 888.023 581.962 801.459 457.752 668.778 417.213 C 656.615 413.497 633.958 406.345 622.506 411.817 C 611.632 417.013 621.394 441.197 623.327 450.515 C 627.166 469.769 630.762 489.07 634.115 508.414 C 658.702 642.537 704.718 699.574 839.011 736.198 C 862.848 742.699 892.661 752.471 907.193 773.319 C 911.214 779.089 915.591 788.484 916.867 795.457 C 924.374 836.512 932.452 932.398 926.248 971.797 C 895.037 949.034 895.645 946.982 877.732 914.176 C 870.936 901.472 863.551 889.09 855.603 877.073 C 784.527 769.443 693.695 711.551 567.502 685.922 C 531.056 678.52 430.49 660.325 398.624 682.429 C 392.064 686.98 387.696 693.428 386.493 701.374 C 382.783 725.869 404.809 756.568 419.061 774.975 C 473.599 845.412 551.76 887.406 636.699 910.127 C 666.345 918.058 696.765 923.423 727.089 928.019 C 772.554 934.909 884.112 942.173 912.203 979.173 C 918.542 987.522 922.006 997.091 923.428 1007.41 C 926.884 1032.49 923.109 1063.8 921.274 1089.33 C 918.489 1128.08 915.784 1167.04 910.384 1205.53 C 867.145 1168.24 821.826 1133.44 774.647 1101.29 C 735.717 1075.24 695.955 1050.45 655.424 1026.97 C 587.972 986.526 518.334 949.85 446.83 917.104 C 423.526 906.63 377.875 885.976 353.222 886.891 C 296.967 888.98 331.985 974.015 342.765 1001.31 C 374.668 1081.86 423.233 1151.06 488.771 1207.62 C 543.887 1255.18 595.55 1246.34 660.413 1228.81 C 714.96 1214.01 767.091 1194.28 823.653 1188.43 C 862.318 1184.44 902.331 1197.9 904.991 1242.31 C 906.311 1264.34 901.229 1291.78 898.159 1313.94 C 892.433 1355.32 884.16 1396.3 873.389 1436.65 C 848.433 1526.72 805.918 1623.09 746.468 1695.9 C 730.648 1715.86 705.378 1725.9 681.437 1712.47 C 613.688 1674.45 546.264 1632.99 480.816 1591.11 C 440.739 1565.47 396.897 1538.78 361.858 1506.9 C 276.58 1428.38 225.8 1319.32 220.587 1203.51 C 219.086 1171.56 220.827 1140.35 222.128 1108.5 L 226.818 991.877 C 228.189 956.828 229.249 921.767 230 886.699 C 230.62 864.716 231.009 838.325 233.215 816.725 C 243.425 716.791 288.373 625.968 355.713 552.029 C 380.398 525.346 407.813 501.326 437.51 480.364 C 488.958 443.689 541.679 417.213 596.174 385.692 C 663.852 346.546 733.449 302.217 807.123 275.431 C 846.69 261.045 889.225 255.355 931.135 253.45 z"/>
</svg>