<?xml version="1.0" encoding="utf-8"?>
<!-- Generator: Adobe Illustrator 28.3.0, SVG Export Plug-In . SVG Version: 6.00 Build 0)  -->
<svg version="1.1" id="Layer_1" xmlns="http://www.w3.org/2000/svg" xmlns:xlink="http://www.w3.org/1999/xlink" x="0px" y="0px"
	 viewBox="0 0 87.2 105.8" style="enable-background:new 0 0 87.2 105.8;" xml:space="preserve">
<style type="text/css">
	.st0{fill:#FFFFFF;}
	.st1{fill:#FF00FF;}
	.st2{fill-opacity:0;stroke:#FFFFFF;stroke-width:1.181;}
	.st3{fill-opacity:0;stroke:#FFFFFF;stroke-width:0.8;}
	.st4{fill:#4D4D4D;}
	.st5{fill-opacity:0;stroke:#FFFFFF;stroke-width:0.415;}
	.st6{fill:#FFFF4D;}
	.st7{fill-opacity:0;stroke:#FF00FF;stroke-width:0.692;stroke-linejoin:round;}
	.st8{fill:#CCFFFF;}
	.st9{fill-opacity:0;stroke:#000000;stroke-width:0.415;stroke-linecap:round;}
	.st10{fill-opacity:0;stroke:#000000;stroke-width:0.418;stroke-linecap:round;}
	.st11{fill:#808080;}
	.st12{fill:#00FFFF;}
	.st13{fill-opacity:0;stroke:#000000;stroke-width:2.4;stroke-linecap:round;}
	.st14{fill-opacity:0;stroke:#000000;stroke-width:0.105;}
	.st15{fill-opacity:0;stroke:#000000;stroke-width:8.900000e-02;}
	.st16{fill-opacity:0;stroke:#000000;stroke-width:0.104;}
	.st17{fill:#BFBFBF;}
	.st18{fill-opacity:0;stroke:#000000;stroke-width:0.208;stroke-linecap:round;}
	.st19{fill-opacity:0;stroke:#000000;stroke-width:0.104;stroke-linecap:round;}
	.st20{fill:#FFC033;}
	.st21{fill:#F2F2F2;}
	.st22{fill:#FFD133;}
	.st23{fill-opacity:0;stroke:#FFFFFF;stroke-width:0.104;stroke-linecap:round;}
	.st24{fill:#E0A114;}
	.st25{fill-opacity:0;stroke:#000000;stroke-width:0.209;stroke-linecap:round;}
	.st26{fill-opacity:0;stroke:#000000;stroke-width:5.200000e-02;stroke-linecap:round;}
</style>
<g id="Background">
	<line class="st0" x1="0" y1="113.4" x2="0" y2="-1.6"/>
</g>
<g id="Layer_1_00000064316544351972645080000000816089572433831851_">
	<g>
		<path class="st1" d="M43.4,1.4l1,3.5C45,4.8,45.5,4.9,46,5l3.1,0.5c4.3,0.9,7.7,2.9,11.3,5.3l2.4,2c10.1,9.3,15.5,22.4,17.6,35.8
			c0.5,3.4,0.9,6.7,1,10.1c0.1,1.9,0,3.9,0,5.8c-0.1,1.2,0.5,2.3,1.1,3.3c0.9,1.4,2.1,2.9,2.8,3.5c0,0-0.1,1.4-1.6,2.9
			c-1.5,1.4-2.6,1.5-2.6,1.5s0.4,2.8-1.1,6.2c-1,2.2-2.5,4.1-4.1,5.9c-0.5,0.6-1.2,1-1.7,1.6c-0.4,0.4-0.6,0.8-1,1.2
			c-1.3,1.6-2.6,2.9-4.2,4.3c0,0,0,0,0,0c-5.8,4.5-13.1,6.8-20.4,7.2l0,0c-2.4,0-3.5,0.4-5.1,2.3c-0.7-1.1-1.9-1.7-3-2.2h0
			c-3-0.1-5.9-0.6-8.9-1.2c-1.5-0.3-2.8-0.8-4.3-1.2c-0.1-0.1-0.3-0.1-0.4-0.2c-4.2-1.6-8.1-3.9-11.2-7.1c-0.9-1-1.7-2.1-2.5-3
			c-1.2-1.3-2.7-2.4-3.8-4c-1.2-1.7-1.2-1.8-2.2-3.6c-1.4-3.3-1.1-6.2-1.1-6.2s-1.1-0.1-2.6-1.5C2.1,72.7,2,71.3,2,71.3
			c0.6-0.5,1.9-2.1,2.8-3.5c0.7-1,1.1-2.1,1.2-3.2l0-0.1c-0.2-5.7,0.2-11.4,1.2-17.1C9,36.6,13.6,24.2,21.2,16.2c0,0,0,0,0,0
			c0,0,0.1-0.1,0.1-0.1c5.5-6,12.8-10.8,21.2-11.2h0L43.4,1.4z"/>
		<path class="st2" d="M43.4,1.4l1,3.5C45,4.8,45.5,4.9,46,5l3.1,0.5c4.3,0.9,7.7,2.9,11.3,5.3l2.4,2c10.1,9.3,15.5,22.4,17.6,35.8
			c0.5,3.4,0.9,6.7,1,10.1c0.1,1.9,0,3.9,0,5.8c-0.1,1.2,0.5,2.3,1.1,3.3c0.9,1.4,2.1,2.9,2.8,3.5c0,0-0.1,1.4-1.6,2.9
			c-1.5,1.4-2.6,1.5-2.6,1.5s0.4,2.8-1.1,6.2c-1,2.2-2.5,4.1-4.1,5.9c-0.5,0.6-1.2,1-1.7,1.6c-0.4,0.4-0.6,0.8-1,1.2
			c-1.3,1.6-2.6,2.9-4.2,4.3c0,0,0,0,0,0c-5.8,4.5-13.1,6.8-20.4,7.2l0,0c-2.4,0-3.5,0.4-5.1,2.3c-0.7-1.1-1.9-1.7-3-2.2h0
			c-3-0.1-5.9-0.6-8.9-1.2c-1.5-0.3-2.8-0.8-4.3-1.2c-0.1-0.1-0.3-0.1-0.4-0.2c-4.2-1.6-8.1-3.9-11.2-7.1c-0.9-1-1.7-2.1-2.5-3
			c-1.2-1.3-2.7-2.4-3.8-4c-1.2-1.7-1.2-1.8-2.2-3.6c-1.4-3.3-1.1-6.2-1.1-6.2s-1.1-0.1-2.6-1.5C2.1,72.7,2,71.3,2,71.3
			c0.6-0.5,1.9-2.1,2.8-3.5c0.7-1,1.1-2.1,1.2-3.2l0-0.1c-0.2-5.7,0.2-11.4,1.2-17.1C9,36.6,13.6,24.2,21.2,16.2c0,0,0,0,0,0
			c0,0,0.1-0.1,0.1-0.1c5.5-6,12.8-10.8,21.2-11.2h0L43.4,1.4z"/>
	</g>
	<g>
		<path class="st1" d="M43.7,102.3c20.6,0,37.8-9.2,37.8-40.6c0-31.4-17.2-56.8-37.8-56.8C23.1,4.9,5.9,30.3,5.9,61.7
			C5.9,93,23.1,102.3,43.7,102.3"/>
		<path class="st3" d="M43.7,102.3c20.6,0,37.8-9.2,37.8-40.6c0-31.4-17.2-56.8-37.8-56.8C23.1,4.9,5.9,30.3,5.9,61.7
			C5.9,93,23.1,102.3,43.7,102.3z"/>
		<path class="st4" d="M43.6,98.6c15.9,0,28.7-15.3,28.7-39.5c0-24.1-12.9-43.7-28.7-43.7c-15.9,0-28.7,19.6-28.7,43.7
			C14.9,83.3,27.7,98.6,43.6,98.6"/>
		<path class="st5" d="M43.6,98.6c15.9,0,28.7-15.3,28.7-39.5c0-24.1-12.9-43.7-28.7-43.7c-15.9,0-28.7,19.6-28.7,43.7
			C14.9,83.3,27.7,98.6,43.6,98.6z"/>
		<path class="st0" d="M12.5,58.7l0.1-2.6c0-0.3,0-0.7-0.1-1.1c-0.1-0.3-0.2-0.6-0.4-0.8c-0.2-0.3-0.5-0.5-0.8-0.6
			c-0.3-0.2-0.8-0.3-1.4-0.3c-0.4,0-0.7,0-1.1,0.1c-0.3,0.1-0.7,0.2-0.9,0.4c-0.3,0.2-0.5,0.4-0.6,0.8c-0.2,0.3-0.2,0.7-0.3,1.2
			l-0.1,2.6L12.5,58.7z M8.3,56.2c0-0.5,0.2-0.8,0.4-1C8.9,55.1,9.3,55,9.9,55c0.4,0,0.8,0.1,1,0.2c0.2,0.1,0.3,0.2,0.4,0.4
			c0.1,0.2,0.1,0.4,0.1,0.8l0,0.4l-3-0.2L8.3,56.2z"/>
		<path class="st0" d="M12.5,52.1c0.4-0.4,0.6-0.9,0.7-1.5c0.1-0.7,0-1.3-0.4-1.8c-0.3-0.5-0.8-0.7-1.4-0.8c-0.5-0.1-1,0-1.4,0.3
			C9.5,48.6,9.2,49.2,9,50c-0.1,0.7,0,1.3,0.4,1.8c0.3,0.5,0.8,0.8,1.4,0.8C11.5,52.7,12.1,52.6,12.5,52.1 M10.3,50.7
			c-0.2-0.2-0.2-0.4-0.2-0.6c0-0.2,0.1-0.4,0.3-0.5c0.2-0.1,0.5-0.2,0.8-0.1c0.4,0.1,0.6,0.2,0.8,0.3c0.1,0.2,0.2,0.4,0.2,0.6
			c0,0.2-0.1,0.4-0.3,0.5c-0.2,0.1-0.5,0.2-0.8,0.1C10.7,51,10.4,50.9,10.3,50.7"/>
		<path class="st0" d="M9.6,46.7l0.3-1.4l0.6,0.1c-0.2-0.3-0.4-0.5-0.4-0.8c-0.1-0.2-0.1-0.5,0-0.8c0.1-0.4,0.3-0.7,0.6-0.9
			c0.3-0.2,0.7-0.2,1.2-0.1l2.5,0.6l-0.3,1.6L12,44.4c-0.2-0.1-0.4,0-0.6,0c-0.1,0.1-0.2,0.2-0.2,0.4c0,0.2,0,0.4,0.1,0.5
			c0.1,0.1,0.4,0.3,0.7,0.3l1.9,0.4l-0.3,1.5L9.6,46.7z"/>
		<path class="st0" d="M9.3,41.1l0.4-1.5l0.9,0.3l1,0.6l-0.3,1l-1.2-0.1L9.3,41.1z"/>
		<path class="st0" d="M10.6,36.8l1.5,0.5l0.3-0.8l1.1,0.4l-0.3,0.8l1.4,0.5c0.2,0.1,0.3,0.1,0.3,0.1c0.1,0,0.2-0.1,0.2-0.2
			c0-0.1,0.1-0.3,0.1-0.5l1.1,0.2c0,0.4-0.1,0.8-0.2,1.1c-0.1,0.4-0.3,0.6-0.4,0.8c-0.2,0.1-0.3,0.2-0.6,0.2c-0.2,0-0.5,0-1-0.2
			l-1.4-0.5l-0.2,0.6l-1.1-0.4l0.2-0.6l-0.7-0.2L10.6,36.8z"/>
		<path class="st0" d="M14.3,31.4l0.3-0.7l1,0.5l-0.3,0.7l2.7,1.2l-0.6,1.4l-2.7-1.2l-0.2,0.5l-1-0.5l0.2-0.5l-0.2-0.1
			c-0.2-0.1-0.3-0.2-0.5-0.3c-0.2-0.1-0.3-0.2-0.4-0.4c-0.1-0.1-0.1-0.3-0.1-0.5c0-0.2,0.1-0.5,0.2-0.8c0.1-0.3,0.3-0.6,0.6-1.1
			l0.8,0.5c-0.1,0.2-0.2,0.3-0.2,0.4c-0.1,0.1-0.1,0.2-0.1,0.3c0,0.1,0.1,0.1,0.2,0.2C14.1,31.3,14.2,31.4,14.3,31.4"/>
		<path class="st0" d="M15,30l0.7-1.4l3.6,1.9l-0.7,1.4L15,30z M13.6,29.3l0.7-1.4l0.9,0.5l-0.7,1.4L13.6,29.3z"/>
		<path class="st0" d="M18.2,25.4c-0.3,0-0.6,0.1-0.8,0.2s-0.4,0.3-0.5,0.6c-0.3,0.4-0.3,0.9-0.2,1.3c0.1,0.4,0.4,0.8,1,1.2
			c0.5,0.3,0.9,0.4,1.3,0.4c0.6,0,1-0.3,1.3-0.8c0.1-0.2,0.2-0.5,0.2-0.8c0-0.2,0-0.4-0.1-0.6l0.5,0.3c0.3,0.2,0.4,0.3,0.4,0.5
			c0,0.2,0,0.3-0.1,0.5c-0.1,0.1-0.2,0.3-0.3,0.3c-0.1,0-0.2,0-0.3,0l-0.9,1.2c0.1,0,0.1,0.1,0.2,0.1c0.3,0.2,0.7,0.3,1.1,0.1
			c0.4-0.1,0.8-0.5,1.2-1.3c0.2-0.3,0.3-0.6,0.4-0.9c0.1-0.3,0.1-0.5,0.1-0.8c0-0.2-0.1-0.5-0.2-0.7c-0.1-0.2-0.3-0.4-0.5-0.5
			l-0.2-0.1l-3.2-2.1l-0.8,1.3L18.2,25.4z M18.1,26.9c-0.1-0.2,0-0.4,0.1-0.5c0.1-0.2,0.3-0.3,0.5-0.3c0.2,0,0.4,0,0.7,0.2
			c0.2,0.2,0.4,0.3,0.5,0.5c0.1,0.2,0,0.4-0.1,0.5c-0.1,0.2-0.3,0.3-0.4,0.3c-0.2,0-0.4,0-0.6-0.2C18.4,27.2,18.2,27.1,18.1,26.9"/>
		<path class="st0" d="M18,21.8l1-1.2l1.6,1.3c0-0.3,0-0.6,0-0.8c0.1-0.2,0.2-0.4,0.4-0.7c0.3-0.3,0.6-0.5,0.9-0.5
			c0.4,0,0.7,0.1,1.1,0.5l2,1.6l-1,1.2l-1.7-1.4c-0.2-0.2-0.4-0.2-0.5-0.2c-0.1,0-0.3,0.1-0.4,0.2c-0.1,0.2-0.2,0.3-0.1,0.5
			c0,0.2,0.2,0.4,0.5,0.6l1.5,1.2l-1,1.2L18,21.8z"/>
		<path class="st0" d="M23,16l1.1,1.1l0.6-0.6l0.8,0.8L24.9,18l1,1c0.1,0.1,0.2,0.2,0.3,0.2c0.1,0,0.2,0,0.3-0.1
			c0.1-0.1,0.2-0.2,0.3-0.4l0.8,0.7c-0.2,0.3-0.4,0.6-0.7,0.9c-0.3,0.3-0.5,0.4-0.7,0.5c-0.2,0.1-0.4,0-0.6,0
			c-0.2-0.1-0.5-0.3-0.8-0.6l-1-1l-0.4,0.4l-0.8-0.8l0.4-0.4l-0.5-0.5L23,16z"/>
		<path class="st0" d="M28.4,11.7l0.9,1.3l0.7-0.5l0.6,1L29.9,14l0.8,1.2c0.1,0.1,0.2,0.2,0.2,0.3c0.1,0,0.2,0,0.3,0
			c0.1-0.1,0.2-0.2,0.3-0.4l0.7,0.8c-0.3,0.3-0.5,0.5-0.8,0.7c-0.3,0.2-0.6,0.3-0.8,0.4c-0.2,0-0.4,0-0.6-0.2
			c-0.2-0.1-0.4-0.4-0.7-0.8l-0.8-1.2l-0.5,0.3l-0.6-1l0.5-0.3l-0.4-0.6L28.4,11.7z"/>
		<path class="st0" d="M30.3,10.4l1.4-0.7l0.8,1.9c0.1-0.3,0.2-0.5,0.4-0.7c0.2-0.2,0.4-0.3,0.6-0.4c0.4-0.2,0.7-0.2,1.1-0.1
			c0.3,0.1,0.6,0.5,0.8,0.9l1.1,2.4l-1.4,0.7l-0.9-2.1C34.1,12.2,34,12,33.8,12c-0.1-0.1-0.3-0.1-0.4,0c-0.2,0.1-0.3,0.2-0.3,0.4
			c0,0.2,0,0.4,0.2,0.8L34,15l-1.4,0.7L30.3,10.4z"/>
		<path class="st0" d="M41.1,10.9c-0.1-0.5-0.3-0.9-0.5-1.2c-0.2-0.3-0.5-0.5-0.9-0.6c-0.4-0.1-0.8-0.1-1.4,0
			c-0.7,0.2-1.2,0.5-1.5,0.9c-0.3,0.5-0.4,1-0.3,1.7c0.1,0.4,0.3,0.8,0.5,1.1c0.3,0.3,0.6,0.5,0.9,0.6c0.3,0.1,0.8,0.1,1.3,0
			c0.6-0.1,1-0.3,1.3-0.6c0.3-0.2,0.5-0.6,0.6-1.1l-1.5,0.2c-0.1,0.1-0.1,0.2-0.2,0.3c-0.1,0.1-0.3,0.2-0.4,0.2
			c-0.2,0.1-0.4,0-0.6-0.1c-0.1-0.1-0.2-0.3-0.3-0.5l3-0.7L41.1,10.9z M38,11c0-0.2,0-0.4,0.1-0.6c0.1-0.2,0.3-0.4,0.5-0.4
			c0.2,0,0.4,0,0.5,0.1c0.2,0.1,0.3,0.3,0.4,0.6L38,11z"/>
		<path class="st0" d="M46.9,12.8l2.5,0.7c0.3,0.1,0.6,0.1,1,0.1c0.3,0,0.6-0.1,0.9-0.2c0.3-0.2,0.5-0.4,0.8-0.7
			c0.2-0.3,0.4-0.7,0.6-1.3c0.1-0.4,0.1-0.7,0.2-1.1c0-0.4-0.1-0.7-0.2-1C52.5,9,52.3,8.7,52,8.5c-0.3-0.2-0.6-0.4-1.1-0.5l-2.5-0.7
			L46.9,12.8z M50.1,9.1c0.4,0.1,0.7,0.3,0.8,0.6c0.1,0.3,0.1,0.7,0,1.3c-0.1,0.4-0.2,0.7-0.4,0.9c-0.1,0.2-0.3,0.3-0.5,0.3
			c-0.2,0-0.4,0-0.8-0.1L48.9,12l0.8-3L50.1,9.1z"/>
		<path class="st0" d="M54.1,10.8l1.3,0.7l-0.3,0.6c0.3-0.2,0.5-0.3,0.6-0.3c0.2,0,0.4,0,0.6,0.1c0.2,0.1,0.4,0.3,0.6,0.5L56,13.1
			c-0.1-0.2-0.2-0.3-0.3-0.3c-0.2-0.1-0.4-0.1-0.5,0c-0.2,0.1-0.5,0.5-0.8,1.1l-0.6,1.2l-1.4-0.7L54.1,10.8z"/>
		<path class="st0" d="M58.4,14.4c0.2,0,0.3,0.1,0.5,0.2c0.2,0.1,0.3,0.2,0.3,0.3c0,0.1,0,0.2-0.1,0.4c-0.2-0.1-0.4-0.1-0.6-0.2
			c-0.2-0.1-0.5-0.2-1.1-0.5c-0.5-0.2-0.8-0.3-1.1-0.2c-0.3,0.1-0.5,0.2-0.7,0.5c-0.2,0.3-0.2,0.6-0.2,0.9c0.1,0.3,0.3,0.6,0.7,0.9
			c0.3,0.2,0.6,0.4,0.9,0.4c0.2,0.1,0.5,0.1,0.7,0c-0.1,0.1-0.1,0.2-0.1,0.2c0,0.1,0,0.1,0,0.3l1.2,0.9c0-0.2,0.1-0.3,0.1-0.4
			c0-0.1,0.1-0.2,0.2-0.4l1-1.5c0.1-0.2,0.2-0.3,0.3-0.6c0.1-0.2,0.1-0.4,0-0.6c-0.1-0.2-0.2-0.5-0.4-0.7c-0.2-0.2-0.5-0.4-0.9-0.7
			c-0.2-0.2-0.5-0.3-0.7-0.4c-0.2-0.1-0.4-0.2-0.6-0.2c-0.2,0-0.4,0-0.6,0.1c-0.2,0.1-0.4,0.2-0.6,0.4l1.1,1
			C58.1,14.4,58.3,14.4,58.4,14.4 M58.5,16.2c-0.1,0.2-0.2,0.3-0.3,0.3c-0.1,0.1-0.3,0.1-0.4,0.1c-0.2,0-0.3-0.1-0.5-0.2
			c-0.1-0.1-0.2-0.2-0.2-0.3c0-0.1,0-0.2,0.1-0.3c0.1-0.1,0.2-0.1,0.3-0.2c0.1,0,0.3,0,0.6,0.1c0.2,0.1,0.4,0.2,0.7,0.2L58.5,16.2z"
			/>
		<path class="st0" d="M63.7,18.5c0-0.3,0-0.6,0-0.8c-0.1-0.2-0.2-0.4-0.4-0.7c-0.4-0.4-0.8-0.5-1.2-0.5c-0.4,0-0.9,0.3-1.3,0.7
			c-0.4,0.4-0.6,0.8-0.7,1.2c-0.1,0.6,0.1,1.1,0.4,1.5c0.2,0.2,0.4,0.3,0.7,0.4c0.2,0.1,0.4,0.1,0.6,0l-0.4,0.4
			c-0.2,0.2-0.4,0.3-0.6,0.3c-0.2,0-0.3-0.1-0.5-0.2c-0.1-0.1-0.2-0.3-0.2-0.4c0-0.1,0-0.2,0.1-0.3l-1-1.2C59.1,19,59,19.1,59,19.1
			c-0.3,0.3-0.4,0.6-0.4,1c0,0.4,0.4,0.9,0.9,1.5c0.3,0.3,0.5,0.5,0.7,0.6c0.2,0.2,0.5,0.2,0.7,0.3c0.2,0,0.5,0,0.7-0.1
			c0.2-0.1,0.4-0.2,0.6-0.4l0.1-0.1l2.7-2.8l-1-1L63.7,18.5z M62.3,18c0.2,0,0.3,0,0.5,0.2c0.1,0.1,0.2,0.3,0.2,0.5
			c0,0.2-0.1,0.4-0.3,0.6c-0.2,0.2-0.4,0.3-0.6,0.3c-0.2,0-0.4,0-0.5-0.2c-0.1-0.1-0.2-0.3-0.2-0.5c0-0.2,0.1-0.4,0.3-0.6
			C61.9,18.2,62.1,18,62.3,18"/>
		<path class="st0" d="M63.5,22.8c0,0.5,0.2,1.1,0.6,1.6c0.4,0.6,0.9,0.9,1.5,1c0.6,0.1,1.1-0.1,1.6-0.5c0.4-0.3,0.7-0.8,0.8-1.3
			c0.1-0.6-0.1-1.3-0.6-1.9c-0.4-0.6-0.9-0.9-1.5-1c-0.6-0.1-1.1,0.1-1.6,0.4C63.8,21.6,63.5,22.1,63.5,22.8 M66,22.1
			c0.2,0,0.4,0.1,0.5,0.3c0.1,0.2,0.2,0.4,0.1,0.6c0,0.2-0.2,0.4-0.5,0.7c-0.3,0.2-0.6,0.3-0.8,0.3c-0.2,0-0.4-0.1-0.5-0.3
			c-0.1-0.2-0.2-0.4-0.1-0.6c0-0.2,0.2-0.4,0.5-0.7C65.5,22.2,65.8,22.1,66,22.1"/>
		<path class="st0" d="M69.3,24.6l0.7,1.3l-0.6,0.3c0.3,0,0.6,0.1,0.8,0.3s0.4,0.3,0.6,0.6c0.2,0.4,0.3,0.7,0.2,1.1
			c-0.1,0.3-0.4,0.7-0.8,0.9L68,30.4l-0.8-1.4l1.9-1.2c0.2-0.1,0.3-0.3,0.4-0.4c0-0.1,0-0.3-0.1-0.4c-0.1-0.2-0.2-0.3-0.4-0.3
			c-0.2,0-0.4,0.1-0.7,0.2l-1.7,1l-0.8-1.4L69.3,24.6z"/>
		<path class="st0" d="M70.9,37.1l0.7,1.7l4.4-4.1l-0.7-1.8l-6,0.1l0.7,1.7l1-0.1l0.7,1.9L70.9,37.1z M72.2,34.5l2.1-0.2l-1.6,1.3
			L72.2,34.5z"/>
		<path class="st0" d="M77,37.5l0.5,1.5l-5.3,1.7l-0.5-1.5L77,37.5z"/>
		<path class="st0" d="M72.9,42c-0.2,0.5-0.3,1-0.1,1.7c0.2,0.7,0.5,1.2,1,1.6c0.5,0.3,1,0.4,1.6,0.2c0.5-0.1,0.9-0.4,1.2-0.8
			c0.4-0.5,0.4-1.2,0.2-2c-0.2-0.7-0.5-1.2-1-1.5c-0.5-0.3-1-0.4-1.6-0.2C73.7,41.1,73.2,41.4,72.9,42 M75.5,42.5
			c0.2,0.1,0.3,0.3,0.4,0.5c0,0.2,0,0.4-0.1,0.6c-0.1,0.2-0.4,0.3-0.7,0.4c-0.4,0.1-0.6,0.1-0.8,0c-0.2-0.1-0.3-0.3-0.4-0.5
			c-0.1-0.2,0-0.4,0.1-0.6c0.1-0.2,0.4-0.3,0.7-0.4C75,42.4,75.3,42.4,75.5,42.5"/>
		<path class="st0" d="M77.6,46l0.2,1.5l-0.6,0.1c0.3,0.2,0.5,0.4,0.7,0.6c0.1,0.2,0.2,0.5,0.3,0.8c0.1,0.4,0,0.8-0.2,1.1
			c-0.2,0.3-0.6,0.5-1.1,0.6l-2.5,0.4L74,49.4l2.2-0.4c0.2,0,0.4-0.1,0.5-0.2c0.1-0.1,0.1-0.3,0.1-0.4c0-0.2-0.1-0.3-0.3-0.4
			c-0.2-0.1-0.4-0.1-0.8-0.1l-1.9,0.3l-0.3-1.6L77.6,46z"/>
		<path class="st0" d="M76.6,56.2c0.5,0,1-0.2,1.3-0.4c0.3-0.2,0.5-0.5,0.7-0.8c0.1-0.4,0.2-0.8,0.1-1.4c-0.1-0.7-0.3-1.3-0.7-1.7
			c-0.4-0.4-0.9-0.5-1.6-0.5c-0.4,0-0.8,0.2-1.1,0.4c-0.3,0.2-0.5,0.5-0.7,0.8c-0.1,0.3-0.2,0.8-0.1,1.3c0.1,0.6,0.2,1.1,0.4,1.4
			c0.2,0.3,0.5,0.6,0.9,0.8l0-1.6c-0.1-0.1-0.2-0.2-0.3-0.3c-0.1-0.1-0.1-0.3-0.2-0.4c0-0.2,0.1-0.5,0.2-0.6
			c0.1-0.1,0.3-0.2,0.5-0.3l0.3,3.2L76.6,56.2z M76.8,53c0.2,0,0.4,0,0.6,0.1c0.2,0.1,0.3,0.3,0.3,0.6c0,0.2,0,0.4-0.1,0.5
			c-0.1,0.1-0.3,0.2-0.6,0.3L76.8,53z"/>
		<path class="st6" d="M39.9,78.2l0.3-39.9c-10.9-13.1,0.5-19.6,0.5-19.6C26.5,19,34,34.9,37.8,40.9c0.7,1.1-0.2,2.1-0.2,2.1
			c-12.4-13.3-7-19.3-7-19.3C15.9,30,36.2,47.4,37,49.5c0.5,1.5,0.1,2.8,0.1,2.8c-0.1-0.4-0.5-1.8-1.7-2.5
			c-14.2-8.1-11.6-16.5-11.6-16.5c-13.6,15,12.1,23.4,12.6,24.1c1.2,1.8,0.8,4.1,0.8,4.1c-0.9-2.1-2.5-5.1-4.1-4.9
			c-13.7,2.2-14.4-10.7-14.4-10.7c-8.1,24.9,16.4,21.9,17.5,23.4C37.3,70.7,39.9,78.2,39.9,78.2"/>
		<path class="st7" d="M39.9,78.2l0.3-39.9c-10.9-13.1,0.5-19.6,0.5-19.6C26.5,19,34,34.9,37.8,40.9c0.7,1.1-0.2,2.1-0.2,2.1
			c-12.4-13.3-7-19.3-7-19.3C15.9,30,36.2,47.4,37,49.5c0.5,1.5,0.1,2.8,0.1,2.8c-0.1-0.4-0.5-1.8-1.7-2.5
			c-14.2-8.1-11.6-16.5-11.6-16.5c-13.6,15,12.1,23.4,12.6,24.1c1.2,1.8,0.8,4.1,0.8,4.1c-0.9-2.1-2.5-5.1-4.1-4.9
			c-13.7,2.2-14.4-10.7-14.4-10.7c-8.1,24.9,16.4,21.9,17.5,23.4C37.3,70.7,39.9,78.2,39.9,78.2z"/>
		<path class="st6" d="M46.6,78.2l-0.3-39.9c10.9-13.1-0.5-19.6-0.5-19.6C60,19,52.5,34.9,48.7,40.9C48,42,49,43,49,43
			c12.4-13.3,7-19.3,7-19.3c14.6,6.2-5.7,23.6-6.4,25.8c-0.5,1.5-0.1,2.8-0.1,2.8c0.1-0.4,0.5-1.8,1.7-2.5
			c14.2-8.1,11.6-16.5,11.6-16.5c13.6,15-12.1,23.4-12.6,24.1c-1.2,1.8-0.8,4.1-0.8,4.1c0.9-2.1,2.5-5.1,4.1-4.9
			c13.7,2.2,14.4-10.7,14.4-10.7c8.1,24.9-16.5,21.9-17.5,23.4C49.2,70.7,46.6,78.2,46.6,78.2"/>
		<path class="st7" d="M46.6,78.2l-0.3-39.9c10.9-13.1-0.5-19.6-0.5-19.6C60,19,52.5,34.9,48.7,40.9C48,42,49,43,49,43
			c12.4-13.3,7-19.3,7-19.3c14.6,6.2-5.7,23.6-6.4,25.8c-0.5,1.5-0.1,2.8-0.1,2.8c0.1-0.4,0.5-1.8,1.7-2.5
			c14.2-8.1,11.6-16.5,11.6-16.5c13.6,15-12.1,23.4-12.6,24.1c-1.2,1.8-0.8,4.1-0.8,4.1c0.9-2.1,2.5-5.1,4.1-4.9
			c13.7,2.2,14.4-10.7,14.4-10.7c8.1,24.9-16.5,21.9-17.5,23.4C49.2,70.7,46.6,78.2,46.6,78.2z"/>
		<path class="st8" d="M60.1,43.1c0,0-2-22.2-17.1-22.3c-11.5,0-15.1,10.2-16.2,13.9c0,0-1.6,7.3-1.3,11.8
			C25.7,48.2,60.1,43.1,60.1,43.1"/>
		<path class="st9" d="M60.1,43.1c0,0-2-22.2-17.1-22.3c-11.5,0-15.1,10.2-16.2,13.9c0,0-1.6,7.3-1.3,11.8
			C25.7,48.2,60.1,43.1,60.1,43.1z"/>
		<path class="st0" d="M44.3,23.2C47,23.5,56.1,27.5,56,38.8L52.9,37c0,0-1.2-8.6-5.5-11.2C43.4,23.4,40.8,22.9,44.3,23.2"/>
		<path d="M36.5,24.5c0,0-5.6,7.1-5.3,17.5l-3.8,2.8c0,0-0.5-6.3,1.7-11.7C31.9,26.1,38.3,22,36.5,24.5"/>
		<path class="st8" d="M59.4,49.5c0,0-4.9,12.9-3.9,15.7l6.3,2.8c-8.5,19.1-27,19.1-37.6-0.3l7.3-3.4l-3.6-10.8L59.4,49.5z"/>
		<path class="st9" d="M59.4,49.5c0,0-4.9,12.9-3.9,15.7l6.3,2.8c-8.5,19.1-27,19.1-37.6-0.3l7.3-3.4l-3.6-10.8L59.4,49.5z"/>
		<path class="st0" d="M53.9,57.7c0,0-1.5,5-2,7.6c-0.5,2.6,2.3,6.9,3.1,7.5c0.8,0.6-2.2,1.3-2.2,1.3s-1.3-2.4-2.1-4.9
			c-0.9-2.5-1.6-4.8,0.9-9.6L53.9,57.7z"/>
		<path d="M39.9,61.9c0,0,0.5,1.5,0.1,2.4c-0.6,1.1-1.8,3.5-2,4.5c-0.4,0.9-0.4,1.9-1.9,1c-1.6-0.7-3.1-1.6-3.3-3.6
			c-0.1-1.4,0.3-1.5,0.1-2.7c-0.4-1-2-6.6-2-6.6L39.9,61.9z"/>
		<path class="st8" d="M43.3,32.9c5.2,1.6,17.6,7.4,17.6,7.4c0.4,33.9-33.5,34.4-36.8,0L43.3,32.9z"/>
		<path class="st9" d="M43.3,32.9c5.2,1.6,17.6,7.4,17.6,7.4c0.4,33.9-33.5,34.4-36.8,0L43.3,32.9z"/>
		<path class="st0" d="M47.4,35.2c0,1.8-1.3,9.9-1.8,12.5c-0.5,2.6-0.1-2.4-0.4-5.7c-0.3-3.6-1.1-8.4-1.1-8.4L47.4,35.2z"/>
		<path class="st10" d="M43.3,33.3l0,28.5"/>
		<path class="st11" d="M41.8,34.9c0,0,0.3,8.4,0.6,11.6c0.3,3.4-0.4,4.2-1.1,1.7c-0.4-2.6-1.8-5.6-3-6.3c-1.2-0.8-6.4-1.7-4.8-2.9
			c1.9-1.3,5.3-2.9,6.1-3.7C40.5,34.8,41.7,33.3,41.8,34.9"/>
		<path class="st12" d="M45.7,39.4l12.8,3.7"/>
		<path class="st13" d="M45.7,39.4l12.8,3.7"/>
		<path class="st12" d="M45.7,43.3l12.2,3.6"/>
		<path class="st13" d="M45.7,43.3l12.2,3.6"/>
		<path class="st12" d="M45.7,47.3l10.7,3.1"/>
		<path class="st13" d="M45.7,47.3l10.7,3.1"/>
		<path class="st12" d="M45.7,50.9l9.1,2.8"/>
		<path class="st13" d="M45.7,50.9l9.1,2.8"/>
		<path class="st12" d="M45.7,54.7l7.2,2.4"/>
		<path class="st13" d="M45.7,54.7l7.2,2.4"/>
		<path class="st12" d="M41.4,39.2l-13.2,4"/>
		<path class="st13" d="M41.4,39.2l-13.2,4"/>
		<path class="st12" d="M41,43.3l-12.2,3.6"/>
		<path class="st13" d="M41,43.3l-12.2,3.6"/>
		<path class="st12" d="M41,47.3l-10.7,3.1"/>
		<path class="st13" d="M41,47.3l-10.7,3.1"/>
		<path class="st12" d="M41,50.9L32,53.7"/>
		<path class="st13" d="M41,50.9L32,53.7"/>
		<path class="st12" d="M41,54.7l-7.2,2.4"/>
		<path class="st13" d="M41,54.7l-7.2,2.4"/>
		<path class="st12" d="M43.5,104.3c-2.5-4.1-16.8-4.1-29-13.8c-2.8-2.2-5.9-5.4-7.3-8.7c-1.4-3.3-1.1-6.2-1.1-6.2s-1.1-0.1-2.6-1.5
			C2.1,72.7,2,71.3,2,71.3c0.6-0.5,1.9-2.1,2.8-3.5c1.1-1.7,1.7-4.1,1.7-4.4c0-0.2,0.2-1,0.8-1.5c0.4-0.3,1-0.6,1.9-0.6
			c1.1,0,1.9,0.5,2.6,1c0.4,0.3,2,2.3,2.2,3.5c0.2,1.2,0.7,4.2,2.3,6.6c11.5,17.6,42,17.6,54.7,1.8c1.7-2.2,2.2-5.7,2.3-7.6
			c0.1-0.8,1.1-3.2,2.3-4.3c0.7-0.6,1.5-1,2.6-1c1,0,1.5,0.2,1.9,0.6c0.6,0.5,0.8,1.2,0.8,1.5c0.1,0.4,0.6,2.7,1.7,4.4
			c0.9,1.4,2.1,2.9,2.8,3.5c0,0-0.1,1.4-1.6,2.9c-1.5,1.4-2.6,1.5-2.6,1.5s0.4,2.8-1.1,6.2c-1.4,3.3-4.5,6.5-7.3,8.7
			C60.3,100.4,45.3,100.4,43.5,104.3"/>
		<path class="st14" d="M43.5,104.3c-2.5-4.1-16.8-4.1-29-13.8c-2.8-2.2-5.9-5.4-7.3-8.7c-1.4-3.3-1.1-6.2-1.1-6.2s-1.1-0.1-2.6-1.5
			C2.1,72.7,2,71.3,2,71.3c0.6-0.5,1.9-2.1,2.8-3.5c1.1-1.7,1.7-4.1,1.7-4.4c0-0.2,0.2-1,0.8-1.5c0.4-0.3,1-0.6,1.9-0.6
			c1.1,0,1.9,0.5,2.6,1c0.4,0.3,2,2.3,2.2,3.5c0.2,1.2,0.7,4.2,2.3,6.6c11.5,17.6,42,17.6,54.7,1.8c1.7-2.2,2.2-5.7,2.3-7.6
			c0.1-0.8,1.1-3.2,2.3-4.3c0.7-0.6,1.5-1,2.6-1c1,0,1.5,0.2,1.9,0.6c0.6,0.5,0.8,1.2,0.8,1.5c0.1,0.4,0.6,2.7,1.7,4.4
			c0.9,1.4,2.1,2.9,2.8,3.5c0,0-0.1,1.4-1.6,2.9c-1.5,1.4-2.6,1.5-2.6,1.5s0.4,2.8-1.1,6.2c-1.4,3.3-4.5,6.5-7.3,8.7
			C60.3,100.4,45.3,100.4,43.5,104.3z"/>
		<path class="st6" d="M12.2,87.4C7.2,82.4,7,79.3,7,75.7c0-3.1,3.2-6.7,3.2-6.7s1.4-2,1.5-3.2c0-0.8-0.2-1.4-0.5-1.9
			c-0.6-0.7-1.4-1-1.4-1s-0.2,1.6-1.5,2.8c0,0,0.4,0.3,0.8,0.4c0,0,1.1-1.3,1.2-2c0,0,1,0.8,0.5,1.7c-0.4,0.7-1.8,0.7-2.8-0.3
			c-0.4-0.4-0.6-0.9-0.7-1.3c-0.1-0.5,0.1-1,0.3-1.3c0.3-0.3,0.6-0.7,1.4-0.7c0.4,0,0.9,0.1,1.5,0.3c0.6,0.2,1.2,0.8,1.7,1.4
			c0.7,0.9,1.3,2.5,1.4,3.4c0,0,0.1,4,4.4,8.8c12.5,14,38.1,14,51.7,1c4.6-4.5,4.2-9.9,4.2-9.9c0.2-0.9,0.7-2.5,1.4-3.4
			c0.5-0.7,1.1-1.2,1.7-1.4c0.6-0.2,1.1-0.3,1.5-0.3c0.7,0,1.1,0.4,1.3,0.7c0.2,0.3,0.4,0.8,0.3,1.3c-0.1,0.4-0.3,0.8-0.7,1.3
			c-0.9,1-2.4,1-2.8,0.3c-0.5-0.8,0.5-1.7,0.5-1.7c0.1,0.7,1.2,2,1.2,2c0.4-0.1,0.8-0.4,0.8-0.4c-1.3-1.2-1.5-2.8-1.5-2.8
			s-0.8,0.3-1.3,1c-0.4,0.5-0.6,1.1-0.6,1.9c0.1,1.2,1.5,3.2,1.5,3.2s3.2,3.6,3.2,6.7c0,3.6-0.2,6.7-5.2,11.7
			C59.2,103.6,26.5,101.8,12.2,87.4"/>
		<path class="st15" d="M12.2,87.4C7.2,82.4,7,79.3,7,75.7c0-3.1,3.2-6.7,3.2-6.7s1.4-2,1.5-3.2c0-0.8-0.2-1.4-0.5-1.9
			c-0.6-0.7-1.4-1-1.4-1s-0.2,1.6-1.5,2.8c0,0,0.4,0.3,0.8,0.4c0,0,1.1-1.3,1.2-2c0,0,1,0.8,0.5,1.7c-0.4,0.7-1.8,0.7-2.8-0.3
			c-0.4-0.4-0.6-0.9-0.7-1.3c-0.1-0.5,0.1-1,0.3-1.3c0.3-0.3,0.6-0.7,1.4-0.7c0.4,0,0.9,0.1,1.5,0.3c0.6,0.2,1.2,0.8,1.7,1.4
			c0.7,0.9,1.3,2.5,1.4,3.4c0,0,0.1,4,4.4,8.8c12.5,14,38.1,14,51.7,1c4.6-4.5,4.2-9.9,4.2-9.9c0.2-0.9,0.7-2.5,1.4-3.4
			c0.5-0.7,1.1-1.2,1.7-1.4c0.6-0.2,1.1-0.3,1.5-0.3c0.7,0,1.1,0.4,1.3,0.7c0.2,0.3,0.4,0.8,0.3,1.3c-0.1,0.4-0.3,0.8-0.7,1.3
			c-0.9,1-2.4,1-2.8,0.3c-0.5-0.8,0.5-1.7,0.5-1.7c0.1,0.7,1.2,2,1.2,2c0.4-0.1,0.8-0.4,0.8-0.4c-1.3-1.2-1.5-2.8-1.5-2.8
			s-0.8,0.3-1.3,1c-0.4,0.5-0.6,1.1-0.6,1.9c0.1,1.2,1.5,3.2,1.5,3.2s3.2,3.6,3.2,6.7c0,3.6-0.2,6.7-5.2,11.7
			C59.2,103.6,26.5,101.8,12.2,87.4z"/>
		<path class="st6" d="M6.7,65c0,0-0.7,2-1.8,3.6c-0.9,1.6-2.3,2.9-2.3,2.9s0.5,1.3,1.3,2c0.7,0.7,1.4,1.2,2.3,1.3
			c0,0,0.2-1.4,1-2.9c1.1-2.2,3-4.1,3.4-5.3c0,0-1,0.7-2.4,0C7.2,66.2,7,65.7,6.7,65"/>
		<path class="st16" d="M6.7,65c0,0-0.7,2-1.8,3.6c-0.9,1.6-2.3,2.9-2.3,2.9s0.5,1.3,1.3,2c0.7,0.7,1.4,1.2,2.3,1.3
			c0,0,0.2-1.4,1-2.9c1.1-2.2,3-4.1,3.4-5.3c0,0-1,0.7-2.4,0C7.2,66.2,7,65.7,6.7,65z"/>
		<path class="st6" d="M80.2,65c0,0,0.7,2,1.8,3.6c1,1.6,2.3,2.9,2.3,2.9s-0.5,1.3-1.3,2c-0.7,0.7-1.4,1.2-2.3,1.3
			c0,0-0.2-1.4-1-2.9c-1.1-2.2-3-4.1-3.4-5.3c0,0,1,0.7,2.3,0C79.7,66.2,79.9,65.7,80.2,65"/>
		<path class="st16" d="M80.2,65c0,0,0.7,2,1.8,3.6c1,1.6,2.3,2.9,2.3,2.9s-0.5,1.3-1.3,2c-0.7,0.7-1.4,1.2-2.3,1.3
			c0,0-0.2-1.4-1-2.9c-1.1-2.2-3-4.1-3.4-5.3c0,0,1,0.7,2.3,0C79.7,66.2,79.9,65.7,80.2,65z"/>
		<path d="M12.9,76l0.8,1.3l-4.1,2.8l-0.8-1.3L12.9,76z"/>
		<path d="M14.2,78l1,1l-0.7,3.3l2-1.9l1,1.1l-3.6,3.4l-1-1.1l0.7-3.2l-2,1.9l-1-1.1L14.2,78z"/>
		<path d="M15.8,84.5l1.2,0.8c-0.1,0.2-0.2,0.4-0.2,0.6c0,0.3,0.1,0.5,0.4,0.6c0.2,0.1,0.3,0.2,0.5,0.2c0.2,0,0.3-0.1,0.4-0.2
			c0.1-0.1,0.1-0.2,0.1-0.4c0-0.2-0.2-0.4-0.5-0.7c-0.4-0.5-0.7-1-0.8-1.4c-0.1-0.4,0-0.7,0.2-1c0.1-0.2,0.3-0.4,0.6-0.5
			s0.5-0.1,0.8,0c0.3,0.1,0.7,0.3,1.1,0.6c0.5,0.4,0.8,0.8,0.9,1.2c0.1,0.4,0.1,0.8-0.2,1.3l-1.2-0.8c0.1-0.2,0.1-0.4,0.1-0.5
			c0-0.2-0.1-0.3-0.3-0.4c-0.1-0.1-0.3-0.2-0.4-0.1c-0.1,0-0.2,0.1-0.3,0.1c0,0.1-0.1,0.1,0,0.2c0,0.1,0.1,0.2,0.3,0.5
			c0.4,0.5,0.7,0.9,0.9,1.2c0.1,0.3,0.2,0.6,0.2,0.8c0,0.3-0.1,0.5-0.3,0.7c-0.2,0.3-0.4,0.4-0.7,0.6c-0.3,0.1-0.6,0.1-0.9,0.1
			c-0.3-0.1-0.7-0.3-1.1-0.5c-0.7-0.5-1-1-1.1-1.4C15.5,85.4,15.6,84.9,15.8,84.5"/>
		<path d="M22,84.8l1.3,0.8l-2.4,4.3l-1.3-0.8L22,84.8z"/>
		<path d="M25.1,90l0.4-1l2.1,1l-0.8,2c-0.5,0.1-1,0.1-1.3,0.1c-0.4,0-0.8-0.2-1.2-0.3c-0.5-0.2-0.9-0.5-1.2-0.9
			c-0.3-0.3-0.4-0.7-0.4-1.2c0-0.4,0.1-0.9,0.3-1.4c0.2-0.5,0.5-0.9,0.9-1.2c0.4-0.3,0.8-0.4,1.2-0.4c0.4,0,0.8,0.1,1.3,0.3
			c0.5,0.2,0.8,0.4,1.1,0.6c0.2,0.2,0.4,0.4,0.4,0.7c0.1,0.3,0.1,0.6,0.1,0.9l-1.4-0.4c0-0.2,0-0.4-0.1-0.5
			c-0.1-0.2-0.2-0.3-0.4-0.4c-0.3-0.1-0.6-0.1-0.9,0c-0.3,0.1-0.5,0.4-0.7,0.9c-0.2,0.5-0.3,0.9-0.2,1.2c0.1,0.3,0.3,0.5,0.6,0.7
			c0.2,0.1,0.3,0.1,0.5,0.1c0.2,0,0.4,0,0.6,0l0.2-0.4L25.1,90z"/>
		<path d="M29.1,88.2l1.5,0.4l-0.5,1.7l1.6,0.5l0.5-1.7l1.5,0.4l-1.3,4.8l-1.5-0.4l0.5-2l-1.6-0.5l-0.5,2l-1.5-0.4L29.1,88.2z"/>
		<path d="M34.1,89.6l4.6,0.7l-0.2,1.2L37,91.3L36.4,95l-1.5-0.2l0.6-3.7l-1.5-0.2L34.1,89.6z"/>
		<path d="M48.1,93.6l1.1-0.2c0,0.2,0.1,0.3,0.2,0.4c0.1,0.1,0.3,0.2,0.6,0.2c0.2,0,0.3-0.1,0.4-0.2c0.1-0.1,0.1-0.2,0.1-0.3
			c0-0.1-0.1-0.2-0.2-0.3c-0.1-0.1-0.3-0.1-0.6-0.2c-0.5-0.1-0.9-0.2-1.2-0.4c-0.2-0.2-0.4-0.4-0.4-0.7c0-0.2,0-0.4,0.1-0.6
			c0.1-0.2,0.3-0.4,0.5-0.5c0.2-0.1,0.5-0.2,0.9-0.2c0.5,0,0.9,0,1.2,0.2c0.3,0.2,0.5,0.5,0.5,0.9l-1.1,0.2c0-0.2-0.1-0.3-0.2-0.4
			c-0.1-0.1-0.2-0.1-0.4-0.1c-0.1,0-0.2,0.1-0.3,0.1c-0.1,0.1-0.1,0.1-0.1,0.2c0,0.1,0,0.1,0.1,0.2c0.1,0,0.2,0.1,0.4,0.1
			c0.5,0.1,0.9,0.2,1.2,0.2c0.2,0.1,0.4,0.2,0.5,0.4c0.1,0.2,0.2,0.4,0.2,0.6c0,0.3,0,0.5-0.1,0.7c-0.1,0.2-0.3,0.4-0.5,0.5
			c-0.2,0.1-0.5,0.2-0.9,0.3c-0.7,0.1-1.1,0-1.4-0.3C48.3,94.3,48.2,94,48.1,93.6"/>
		<path d="M52.6,93.6c0.2,0.3,0.5,0.4,0.8,0.5c0.3,0.1,0.7,0.1,1.1,0c0.4-0.1,0.8-0.2,1-0.5c0.3-0.2,0.4-0.5,0.5-0.8
			c0.1-0.3,0.1-0.7,0-1.2c-0.1-0.6-0.4-1.1-0.8-1.4c-0.4-0.3-0.9-0.4-1.6-0.2c-0.6,0.1-1.1,0.4-1.4,0.8c-0.3,0.4-0.4,1-0.3,1.6
			C52.2,93,52.3,93.4,52.6,93.6 M53.3,91.4c0.1-0.2,0.3-0.3,0.5-0.4c0.3-0.1,0.5,0,0.6,0.1c0.2,0.1,0.3,0.4,0.4,0.8
			c0.1,0.4,0.1,0.8,0,1c-0.1,0.2-0.3,0.3-0.5,0.4c-0.2,0-0.5,0-0.6-0.1c-0.2-0.1-0.3-0.4-0.4-0.8C53.2,91.9,53.2,91.6,53.3,91.4"/>
		<path d="M56.2,89.7l2.9-0.9l0.2,0.8l-1.7,0.5l0.2,0.7l1.5-0.4l0.2,0.8l-1.5,0.4l0.5,1.6l-1.2,0.3L56.2,89.7z"/>
		<path d="M59.4,88.7l3.4-1.4l0.4,0.9L62,88.7l1.1,2.8L62,92l-1.1-2.8l-1.1,0.5L59.4,88.7z"/>
		<path d="M62.8,87.4l1-0.6l1.5,1.7l-0.6-2.2l1-0.6l1.6,1.6l-0.7-2.1l1-0.6l1.2,3.9l-1,0.6l-1.8-1.8l0.6,2.5l-1,0.6L62.8,87.4z"/>
		<path d="M72.1,85.8l1-0.8l-3.6-2.1l-1,0.9l1.3,4.1l1-0.8l-0.3-0.6l1.1-0.9L72.1,85.8z M70.2,85.5l-0.6-1.4l1.2,0.8L70.2,85.5z"/>
		<path d="M74.5,83.4l-1.2-1.1l0.1-0.1c0.1-0.1,0.2-0.1,0.3-0.2c0.1,0,0.2,0,0.4,0l1.3,0.3l0.9-1.1L75,81.1c-0.1,0-0.2,0-0.3,0
			c-0.1,0-0.2,0-0.3,0c-0.1,0-0.2,0.1-0.3,0.1c0.1-0.2,0.1-0.3,0.2-0.4c0-0.2,0-0.4,0-0.6c-0.1-0.2-0.2-0.3-0.3-0.5
			c-0.2-0.2-0.4-0.3-0.6-0.3c-0.2,0-0.4,0-0.6,0.1c-0.2,0.1-0.4,0.3-0.6,0.6l-1.3,1.6l3,2.6L74.5,83.4z M72.2,81.3l0.3-0.4
			c0.1-0.2,0.3-0.3,0.4-0.3c0.1,0,0.2,0,0.3,0.1c0.1,0.1,0.1,0.1,0.1,0.2c0,0.1,0,0.2,0,0.2c-0.1,0.1-0.1,0.2-0.2,0.3l-0.3,0.4
			L72.2,81.3z"/>
		<path d="M73.4,78.6l1.7-2.9l0.7,0.4l-1,1.8l0.5,0.3l1-1.7l0.7,0.4l-1,1.7l0.7,0.4l1.1-1.8l0.8,0.5l-1.7,2.9L73.4,78.6z"/>
		<path class="st17" d="M43.4,1.4l1.7,5.9l0.9,75h-5.1l0.9-75L43.4,1.4z"/>
		<path class="st18" d="M43.4,1.4l1.7,5.9l0.9,75h-5.1l0.9-75L43.4,1.4z"/>
		<path d="M41,80.9c0,8.9,1.1,18.8,2.5,18.8c1.4,0,2.5-9.9,2.5-18.8"/>
		<path class="st19" d="M41,80.9c0,8.9,1.1,18.8,2.5,18.8c1.4,0,2.5-9.9,2.5-18.8"/>
		<path class="st20" d="M43.4,101.9c2.4,0,4.3-1.4,4.3-3.1c0-1.7-1.9-3.1-4.3-3.1c-2.4,0-4.3,1.4-4.3,3.1
			C39.2,100.5,41.1,101.9,43.4,101.9"/>
		<path class="st18" d="M43.4,101.9c2.4,0,4.3-1.4,4.3-3.1c0-1.7-1.9-3.1-4.3-3.1c-2.4,0-4.3,1.4-4.3,3.1
			C39.2,100.5,41.1,101.9,43.4,101.9z"/>
		<path class="st21" d="M43.4,3.7v76.2l2.1,0.1L44.5,7.2L43.4,3.7z"/>
		<path class="st22" d="M45.3,80.9c0-8.9-0.9-16.1-1.9-16.1c-1.4,0-1.9,7.2-1.9,16.1"/>
		<path class="st16" d="M45.3,80.9c0-8.9-0.9-16.1-1.9-16.1c-1.4,0-1.9,7.2-1.9,16.1"/>
		<path class="st20" d="M34.4,81.5L30.9,83l-2.8-2l2.8-2.1l3.5,1.7h18.1l3.5-1.7l2.8,2.1L56,83l-3.5-1.5H34.4z"/>
		<path class="st23" d="M34.4,81.5L30.9,83l-2.8-2l2.8-2.1l3.5,1.7h18.1l3.5-1.7l2.8,2.1L56,83l-3.5-1.5H34.4z"/>
		<path class="st24" d="M55.8,80.5c0,0-5.7-1.5-12.5-1.5c-6.9,0-12.5,1.5-12.5,1.5"/>
		<path class="st25" d="M55.8,80.5c0,0-5.7-1.5-12.5-1.5c-6.9,0-12.5,1.5-12.5,1.5"/>
		<path class="st20" d="M31,81.2c0,0,4.4,1.2,10.3,1.4c1.4-0.8,3.1-0.9,4.5,0c5.8-0.3,10.2-1.4,10.2-1.4"/>
		<path class="st25" d="M31,81.2c0,0,4.4,1.2,10.3,1.4c1.4-0.8,3.1-0.9,4.5,0c5.8-0.3,10.2-1.4,10.2-1.4"/>
		<path class="st20" d="M55.7,80.6c0,0-5.6-0.6-12.5-0.6c-6.9,0-12.5,0.6-12.5,0.6"/>
		<path class="st26" d="M55.7,80.6c0,0-5.6-0.6-12.5-0.6c-6.9,0-12.5,0.6-12.5,0.6"/>
		<path class="st18" d="M41.8,101c0.6-0.3,2.9-0.3,3.4,0"/>
	</g>
</g>
</svg>
